<?xml version="1.0" encoding="UTF-8" standalone="no"?>
<svg
   xmlns:dc="http://purl.org/dc/elements/1.1/"
   xmlns:cc="http://creativecommons.org/ns#"
   xmlns:rdf="http://www.w3.org/1999/02/22-rdf-syntax-ns#"
   xmlns:svg="http://www.w3.org/2000/svg"
   xmlns="http://www.w3.org/2000/svg"
   xmlns:sodipodi="http://sodipodi.sourceforge.net/DTD/sodipodi-0.dtd"
   xmlns:inkscape="http://www.inkscape.org/namespaces/inkscape"
   width="1294.9578"
   height="479.87875"
   viewBox="0 0 1294.9578 479.87876"
   version="1.1"
   id="svg22"
   sodipodi:docname="logo.svg"
   inkscape:version="1.0.2-2 (e86c870879, 2021-01-15)">
  <title
     id="title916">click_rich_help</title>
  <metadata
     id="metadata26">
    <rdf:RDF>
      <cc:Work
         rdf:about="">
        <dc:format>image/svg+xml</dc:format>
        <dc:type
           rdf:resource="http://purl.org/dc/dcmitype/StillImage" />
        <dc:title>click_rich_help</dc:title>
      </cc:Work>
    </rdf:RDF>
  </metadata>
  <sodipodi:namedview
     pagecolor="#ffffff"
     bordercolor="#666666"
     borderopacity="1"
     objecttolerance="10"
     gridtolerance="10"
     guidetolerance="10"
     inkscape:pageopacity="0"
     inkscape:pageshadow="2"
     inkscape:window-width="1902"
     inkscape:window-height="1103"
     id="namedview24"
     showgrid="false"
     inkscape:zoom="0.48417173"
     inkscape:cx="266.00814"
     inkscape:cy="131.07168"
     inkscape:window-x="0"
     inkscape:window-y="0"
     inkscape:window-maximized="0"
     inkscape:current-layer="svg22"
     inkscape:document-rotation="0" />
  <defs
     id="defs4">
    <inkscape:path-effect
       effect="spiro"
       id="path-effect1612"
       is_visible="true"
       lpeversion="1" />
    <style
       id="style2">.cls-1{fill:#ff8898;}.cls-2{fill:#fff;}.cls-3{fill:#576065;}</style>
    <linearGradient
       gradientUnits="userSpaceOnUse"
       x1="333.85199"
       y1="130.64101"
       x2="333.85199"
       y2="297.21899"
       id="gradient-0">
      <stop
         offset="0"
         style="stop-color: rgba(85, 112, 136, 1)"
         id="stop2" />
      <stop
         offset="1"
         style="stop-color: rgba(77, 102, 124, 0.8);"
         id="stop4" />
    </linearGradient>
    <filter
       id="outline-filter-0"
       x="-0.035504818"
       y="-0.18485689"
       width="1.0877326"
       height="1.2815342">
      <feMorphology
         in="SourceAlpha"
         result="dilated"
         operator="dilate"
         radius="2"
         id="feMorphology7" />
      <feFlood
         flood-color="rgba(255,255,255,1)"
         result="flood"
         id="feFlood9" />
      <feComposite
         in="flood"
         in2="dilated"
         operator="in"
         result="outline"
         id="feComposite11" />
      <feMerge
         id="feMerge17">
        <feMergeNode
           in="outline"
           id="feMergeNode13" />
        <feMergeNode
           in="SourceGraphic"
           id="feMergeNode15" />
      </feMerge>
    </filter>
    <filter
       id="outline-filter-0-3"
       x="-5"
       y="-5"
       width="10"
       height="10">
      <feMorphology
         in="SourceAlpha"
         result="dilated"
         operator="dilate"
         radius="2"
         id="feMorphology1299" />
      <feFlood
         flood-color="rgba(255,255,255,1)"
         result="flood"
         id="feFlood1301" />
      <feComposite
         in="flood"
         in2="dilated"
         operator="in"
         result="outline"
         id="feComposite1303" />
      <feMerge
         id="feMerge1309">
        <feMergeNode
           in="outline"
           id="feMergeNode1305" />
        <feMergeNode
           in="SourceGraphic"
           id="feMergeNode1307" />
      </feMerge>
    </filter>
    <clipPath
       clipPathUnits="userSpaceOnUse"
       id="clipPath1594">
      <rect
         style="fill:none;fill-opacity:1;stroke:#fc00ff;stroke-width:1.04138;stroke-miterlimit:4;stroke-dasharray:4.16553, 1.04138;stroke-dashoffset:0;stroke-opacity:1;stop-color:#000000"
         id="rect1596"
         width="298.61987"
         height="65.255424"
         x="312.55621"
         y="258.94296" />
    </clipPath>
    <clipPath
       clipPathUnits="userSpaceOnUse"
       id="clipPath1598">
      <rect
         style="fill:none;fill-opacity:1;stroke:#fc00ff;stroke-width:0.526719;stroke-miterlimit:4;stroke-dasharray:2.10688, 0.526719;stroke-dashoffset:0;stroke-opacity:1;stop-color:#000000"
         id="rect1600"
         width="136.00043"
         height="36.655067"
         x="85.231003"
         y="477.72885" />
    </clipPath>
  </defs>
  <g
     id="g1846"
     transform="matrix(2.7606603,0,0,2.7606603,-1.7289886e-5,1.7992181e-7)">
    <g
       id="info-bubble-2-8"
       data-name="info-bubble"
       transform="translate(362.78999,72.554793)">
      <g
         id="fill-4">
        <path
           class="cls-1"
           d="M 45,1.88 A 43.09,43.09 0 0 0 7.42,66.12 L 1.88,83.5 18.48,79 A 43.11,43.11 0 1 0 45,1.88 Z"
           id="path8-7" />
        <circle
           class="cls-2"
           cx="45"
           cy="45"
           r="32.34"
           id="circle10-3" />
      </g>
      <g
         id="outline-9">
        <path
           class="cls-3"
           d="M 45,90 A 44.51,44.51 0 0 1 18.08,81 L 2.37,85.31 A 1.87,1.87 0 0 1 0.09,82.93 L 5.39,66.32 A 45,45 0 1 1 45,90 Z M 18.48,77.09 a 1.88,1.88 0 0 1 1.15,0.4 40.82,40.82 0 0 0 25.37,8.76 41.29,41.29 0 1 0 -35.94,-21 1.87,1.87 0 0 1 0.15,1.49 L 4.71,80.78 18,77.15 a 1.9,1.9 0 0 1 0.48,-0.06 z"
           id="path13-6" />
        <path
           class="cls-3"
           d="M 45.15,59.25 H 41.4 v -9.18 a 1.87,1.87 0 0 1 1.88,-1.87 c 8.62,0 14.64,-5.31 14.64,-12.91 0,-7.6 -4.8,-12.91 -11.68,-12.91 -7.4,0 -14.14,6.51 -14.14,13.65 h -3.76 c 0,-9.27 8.36,-17.4 17.89,-17.4 8.94,0 15.43,7 15.43,16.66 0,9.08 -6.84,15.81 -16.51,16.59 z"
           id="path15-5" />
        <rect
           class="cls-3"
           x="41.400002"
           y="64.959999"
           width="3.75"
           height="4.54"
           id="rect17-1" />
      </g>
    </g>
    <path
       style="fill:#000000;stroke-width:1.35095"
       d="m 96.493692,165.9331 v -2.28201 h 4.278738 4.27868 v 2.28201 2.28202 h -4.27868 -4.278738 z m -4.56403,-6.84605 v -4.56403 h 1.99673 1.9968 v 4.56403 4.56404 h -1.9968 -1.99673 z m 13.691948,0 v -4.56403 h 1.99687 1.99666 v 4.56403 4.56404 h -1.99666 -1.99687 z M 63.975102,120.0077 V 80.928268 h 2.28187 c 2.28202,0 2.28202,0 2.28202,2.28202 0,2.28201 0,2.28201 2.28202,2.28201 2.28201,0 2.28201,0 2.28201,2.28204 0,2.28201 0,2.28201 2.28202,2.28201 2.28202,0 2.28202,0 2.28202,2.282 0,2.28203 0,2.28203 -2.28202,2.28203 -2.28202,0 -2.28202,0 -2.28202,-2.28203 0,-2.282 0,-2.282 -2.28201,-2.282 h -2.28202 v 32.233442 32.23323 h 2.28202 c 2.28201,0 2.28201,0 2.28201,2.28202 v 2.28201 h -4.56403 -4.56389 z m 9.45692,34.08368 c -0.18093,-0.18086 -0.329,-1.1848 -0.329,-2.23066 0,-1.84302 0.0716,-1.90173 2.31652,-1.90173 h 2.31644 l -0.17714,2.13951 c -0.16236,1.96266 -0.3265,2.14688 -1.98737,2.23052 -0.99579,0.05 -1.95844,-0.0564 -2.13945,-0.23764 z m 13.70139,-0.0529 c -0.18672,-0.30186 -0.27636,-2.37016 -0.19936,-4.59618 l 0.13993,-4.0471 h 2.16659 2.16658 l -0.16664,4.42139 -0.16672,4.42132 -1.80051,0.17486 c -0.99036,0.0959 -1.9533,-0.073 -2.13987,-0.37429 z m 13.924308,-4.09667 v -4.54661 h 1.99666 1.99673 v 4.4716 4.47154 l -1.99673,0.0756 -1.99666,0.0756 v -4.54653 z m -23.010378,-0.36308 c -0.20914,-0.20907 -0.38028,-1.23608 -0.38028,-2.28194 0,-1.83823 0.0756,-1.90173 2.28201,-1.90173 2.28202,0 2.28202,0 2.28202,2.28201 0,2.20595 -0.0636,2.28202 -1.90173,2.28202 -1.04594,0 -2.07273,-0.17121 -2.28202,-0.38036 z m 4.18375,-6.7509 c 0,-1.94923 0.0543,-1.99666 2.28201,-1.99666 2.22773,0 2.28202,0.0471 2.28202,1.99666 0,1.9493 -0.0543,1.99687 -2.28202,1.99687 -2.22765,0 -2.28201,-0.0471 -2.28201,-1.99687 z m 14.2626,-2.28202 v -4.27875 h 9.127918 9.12807 v -2.28194 c 0,-2.22773 0.0471,-2.28202 1.9968,-2.28202 h 1.99673 v 4.26425 4.26424 l -8.98543,0.15715 -8.98535,0.15707 -0.17714,2.13937 c -0.16743,2.0233 -0.28357,2.13952 -2.139368,2.13952 h -1.96223 z m 13.691958,-11.41008 c 0,-1.90159 0.0946,-1.99666 1.99687,-1.99666 1.90158,0 1.99665,0.0946 1.99665,1.99666 0,1.90173 -0.0946,1.99687 -1.99665,1.99687 -1.9018,0 -1.99687,-0.0946 -1.99687,-1.99687 z m -4.56404,-4.56389 c 0,-1.90173 0.0946,-1.9968 1.99687,-1.9968 1.90159,0 1.99666,0.0945 1.99666,1.9968 0,1.90165 -0.0946,1.99673 -1.99666,1.99673 -1.90172,0 -1.99687,-0.0946 -1.99687,-1.99673 z m -4.56389,-4.56403 c 0,-1.90166 0.0946,-1.9968 1.99666,-1.9968 1.90173,0 1.99673,0.0946 1.99673,1.9968 0,1.90158 -0.0946,1.99672 -1.99673,1.99672 -1.90166,0 -1.99666,-0.0946 -1.99666,-1.99672 z m -4.564028,-4.71304 c 0,-2.06558 0.0743,-2.14716 1.99666,-2.17973 1.939578,-0.0321 1.996798,0.0286 1.996798,2.14587 0,2.11066 -0.0636,2.17959 -1.996798,2.17959 -1.92802,0 -1.99666,-0.0743 -1.99666,-2.14573 z m -4.56403,-4.70032 c 0,-2.22759 0.0471,-2.28187 1.99673,-2.28187 1.94922,0 1.9968,0.0543 1.9968,2.28187 0,2.22773 -0.0471,2.28202 -1.9968,2.28202 -1.94916,0 -1.99673,-0.0543 -1.99673,-2.28202 z m -4.66189,-4.56389 c 0.20714,-2.17151 0.3115,-2.28201 2.15458,-2.28201 1.87923,0 1.9368,0.0678 1.9368,2.28201 0,2.25945 -0.0214,2.28202 -2.15451,2.28202 h -2.15445 z m -4.46618,-4.56403 c 0,-2.227732 0.0471,-2.282022 1.99673,-2.282022 1.94923,0 1.9968,0.0543 1.9968,2.282022 0,2.22759 -0.0471,2.28202 -1.9968,2.28202 -1.94923,0 -1.99673,-0.0543 -1.99673,-2.28202 z m -5.02632,-4.421392 c 0.16736,-2.0233 0.29329,-2.14909 2.31645,-2.31644 l 2.13937,-0.17715 v 2.31645 2.31651 h -2.31645 -2.31651 z"
       id="path4856"
       inkscape:connector-curvature="0" />
    <g
       id="g1769"
       transform="matrix(0.7206121,0,0,0.7206121,-56.215746,-0.011049)">
      <g
         transform="matrix(0.814848,0,0,0.814848,121.75718,-20.683708)"
         style="opacity:0.58"
         id="g98">
        <path
           stroke-width="0"
           d="m 364.044,207.651 c 4.429,-0.528 16.087,-0.801 19.98,0 0.767,0.158 1.371,0.312 1.872,0.499 -0.44,-0.104 -0.886,-0.149 -1.363,-0.188 -0.648,-0.053 -1.356,-0.08 -2.061,0 -0.059,0.007 -0.119,0.014 -0.18,0.021 0.267,0.044 0.524,0.095 0.79,0.178 0.289,0.046 0.576,0.115 0.85,0.215 0.945,0.347 2.094,1.059 2.816,1.828 0.695,0.741 1.201,1.705 1.482,2.668 0.285,0.978 0.285,2.076 0.198,3.162 -0.093,1.15 -0.324,2.536 -0.791,3.558 -0.114,0.249 -0.246,0.492 -0.391,0.727 0.216,-0.112 0.434,-0.233 0.641,-0.357 -0.364,3.253 1.15,10.466 0.351,14.069 -0.638,2.882 -1.909,5.536 -3.59,6.712 -1.492,1.044 -3.195,0.532 -5.619,0.624 -3.458,0.132 -10.485,-0.558 -13.736,-0.312 -2.131,0.162 -3.22,1.25 -4.683,0.937 -1.509,-0.324 -3.143,-1.315 -4.215,-2.966 -1.413,-2.178 -2.089,-6.705 -2.497,-9.99 -0.393,-3.163 -0.277,-6.708 0,-9.366 0.228,-2.187 0.499,-3.88 1.249,-5.619 0.754,-1.749 1.794,-3.772 3.278,-4.839 1.482,-1.065 2.913,-1.238 5.619,-1.561 z"
           style="fill:#ffcb37;stroke-width:2px"
           id="path22" />
        <path
           stroke-width="0"
           d="m 315.072,140.631 c 1.888,-0.462 3.592,-0.156 4.97,0.414 1.274,0.527 2.442,1.461 3.106,2.691 0.742,1.378 1.141,3.848 0.828,5.384 -0.282,1.383 -1.05,2.422 -2.278,3.52 -1.61,1.44 -6.187,3.194 -7.247,3.934 -0.433,0.303 -0.338,0.284 -0.621,0.622 -0.512,0.609 -2.083,1.932 -2.278,3.105 -0.204,1.229 1.357,2.504 1.242,4.142 -0.148,2.122 -1.251,6.182 -3.106,7.661 -1.827,1.457 -5.636,1.784 -7.868,1.242 -2.058,-0.499 -4.168,-2.153 -5.176,-3.934 -1.045,-1.843 -1.151,-4.574 -0.829,-7.04 0.36,-2.75 1.643,-5.976 3.313,-8.697 1.776,-2.893 4.538,-5.882 7.247,-8.075 2.624,-2.124 6.202,-4.36 8.697,-4.969 z m 107.704,-0.941 c 1.454,-0.088 3.902,-0.013 6.212,1.243 3.306,1.796 8.52,6.432 11.388,10.56 2.846,4.095 5.946,10.605 5.798,14.08 -0.107,2.488 -1.677,4.49 -3.52,5.591 -2.061,1.23 -6.257,1.193 -8.697,0.828 -2.05,-0.307 -4.036,-0.93 -5.176,-2.278 -1.201,-1.418 -1.818,-4.405 -1.657,-6.212 0.142,-1.583 2.527,-2.532 2.071,-4.141 -0.706,-2.49 -8.617,-6.59 -10.353,-9.111 -1.092,-1.584 -1.428,-2.662 -1.243,-4.141 0.216,-1.729 2.061,-4.598 3.106,-5.591 0.686,-0.651 1.113,-0.77 2.071,-0.828 z m -121.807,80.092 c 1.527,0.084 5.36,0.989 6.954,2.819 1.771,2.034 2.31,6.597 2.632,9.398 0.271,2.366 -0.657,3.547 -0.376,6.39 0.429,4.348 3.427,12.762 4.135,18.044 0.588,4.39 0.486,8.313 0.376,11.652 -0.091,2.751 -1.446,5.258 -0.752,7.143 0.639,1.736 1.951,3.081 4.323,3.947 3.722,1.358 11.06,0.751 18.043,0.751 8.566,0.001 20.889,-1.173 30.072,-1.127 8.187,0.04 14.308,1.031 22.554,1.127 9.34,0.109 25.319,-2.056 30.824,-0.751 0.603,0.143 1.123,0.306 1.576,0.488 0.263,-1.184 0.827,-2.412 1.643,-3.277 0.732,-0.776 1.994,-1.461 3.254,-1.974 0.008,-0.419 0.046,-0.827 0.131,-1.215 0.609,-2.778 2.718,-5.198 3.383,-8.645 0.806,-4.181 -0.204,-10.162 0.376,-15.036 0.567,-4.768 2.547,-9.78 3.007,-13.909 0.389,-3.497 -0.674,-6.806 0,-9.397 0.575,-2.211 2.177,-4.504 3.195,-5.451 0.646,-0.6 1.04,-0.641 1.88,-0.752 1.196,-0.158 3.564,-0.162 4.886,0.376 1.186,0.483 2.183,0.991 2.82,2.444 1.005,2.293 1.066,7.577 0.751,11.653 -0.34,4.411 -2.373,8.845 -3.007,13.908 -0.703,5.615 0.183,13.545 -0.752,18.419 -0.721,3.76 -2.865,6.283 -3.383,9.022 -0.439,2.323 0.689,4.073 0,6.39 -0.862,2.902 -3.936,7.744 -5.826,9.586 -1.277,1.243 -2.118,1.521 -3.759,1.879 -2.191,0.478 -6.499,0.531 -8.646,0 -0.397,-0.098 -0.765,-0.202 -1.108,-0.322 -3.542,1.18 -10.095,0.548 -14.705,0.473 -4.692,-0.077 -8.775,-1.046 -13.533,-1.128 -5.103,-0.088 -9.779,0.787 -16.163,0.752 -8.061,-0.045 -20.656,-1.529 -28.945,-1.504 -6.805,0.021 -11.855,1.134 -17.667,1.128 -5.713,-0.007 -13.436,-0.021 -16.916,-1.128 -2.109,-0.671 -2.977,-1.851 -3.947,-2.819 -0.797,-0.796 -0.916,-1.572 -1.691,-2.443 -0.979,-1.1 -2.908,-2.206 -3.947,-3.571 -1.017,-1.337 -1.888,-2.973 -2.256,-4.511 -0.351,-1.472 -0.059,-2.4 0,-4.511 0.096,-3.419 1.219,-10.208 0.752,-15.036 -0.453,-4.684 -2.528,-8.392 -3.383,-13.533 -1.002,-6.026 -2.804,-16.574 -1.879,-20.674 0.538,-2.388 2.213,-3.521 3.195,-4.323 0.664,-0.543 0.975,-0.801 1.879,-0.752 z"
           style="fill:#8d8d8d;stroke-width:2px"
           id="path24" />
        <path
           stroke-width="0"
           d="m 367.671,179.084 c 1.171,-0.006 1.979,-0.129 2.94,0.155 1.027,0.303 2.254,0.927 3.018,1.702 0.745,0.757 1.264,1.844 1.547,2.863 0.284,1.019 0.249,2.571 0.155,3.25 -0.054,0.394 -0.596,0.577 -0.309,0.773 0.869,0.596 10.441,-0.643 13.385,0.078 1.888,0.462 3.201,1.743 3.791,2.244 0.278,0.235 0.116,0.426 0.387,0.541 0.481,0.205 1.883,-0.154 2.785,0 0.903,0.155 1.041,0.713 2.631,0.929 3.64,0.493 18.732,-0.368 22.128,0 1.362,0.147 1.453,0.242 2.167,0.619 0.809,0.426 1.645,0.949 2.398,1.934 1.012,1.322 1.278,4.739 2.786,5.803 1.479,1.044 4.294,-0.08 6.112,0.619 1.785,0.686 3.696,2.301 4.72,3.481 0.795,0.917 1.136,1.82 1.393,2.786 0.25,0.944 0.303,1.745 0.154,2.94 -0.201,1.617 -1.002,4.56 -1.702,6.035 -0.52,1.096 -1.044,1.766 -1.779,2.399 -0.735,0.631 -1.686,1.133 -2.631,1.392 -0.961,0.264 -2.035,0.333 -3.095,0.155 -1.153,-0.193 -2.038,-1.127 -3.559,-1.393 -2.033,-0.355 -5.626,-0.299 -7.892,0 -1.909,0.252 -3.47,1.18 -4.952,1.393 -1.256,0.181 -2.294,0.155 -3.404,0 -1.107,-0.155 -1.896,-0.685 -3.25,-0.928 -1.794,-0.323 -5.011,-0.727 -6.808,-0.619 -1.35,0.08 -2.103,0.838 -3.25,0.773 -1.264,-0.072 -3.296,-1.319 -4.023,-1.392 -0.341,-0.035 -0.325,0.158 -0.619,0.154 -0.485,-0.005 -1.447,-0.152 -2.167,-0.464 -0.12,-0.052 -0.24,-0.103 -0.36,-0.156 0.058,0.006 0.115,0.01 0.173,0.014 0.509,0.032 1.096,-0.015 1.572,-0.09 0.428,-0.068 0.724,-0.121 1.168,-0.314 0.135,-0.059 0.288,-0.132 0.449,-0.215 -0.345,0.037 -0.696,0.051 -1.024,0.027 -0.793,-0.058 -1.669,-0.303 -2.38,-0.629 -0.681,-0.312 -1.363,-0.839 -1.819,-1.257 -0.367,-0.338 -0.559,-0.614 -0.808,-1.011 -0.281,-0.447 -0.59,-1.086 -0.763,-1.571 -0.15,-0.418 -0.216,-0.74 -0.27,-1.168 -0.06,-0.476 -0.062,-1.166 -0.045,-1.572 0.013,-0.293 0.21,-0.451 0.09,-0.696 -0.181,-0.369 -1.132,-0.74 -1.572,-1.19 -0.421,-0.43 -0.779,-0.987 -1.032,-1.437 -0.215,-0.38 -0.331,-0.692 -0.449,-1.077 -0.075,-0.245 -0.142,-0.508 -0.192,-0.776 -0.159,0.388 -0.275,0.794 -0.357,1.188 -0.058,0.279 -0.089,0.523 -0.11,0.801 -0.03,0.069 -0.058,0.137 -0.086,0.207 -1.9,-0.629 -6.807,-0.219 -8.433,-0.529 -0.907,-0.173 -0.88,-0.649 -1.702,-0.619 -1.388,0.05 -3.854,1.753 -6.345,2.166 -2.991,0.497 -9.269,-0.969 -10.6,0.155 -0.852,0.72 0.252,2.304 0.155,3.482 -0.099,1.219 -0.292,2.645 -0.774,3.714 -0.449,0.999 -1.171,1.915 -1.934,2.553 -0.72,0.602 -1.6,1.006 -2.476,1.238 -0.878,0.233 -1.9,0.289 -2.785,0.155 -0.867,-0.132 -1.56,-1.012 -2.476,-0.929 -1.105,0.1 -1.482,1.557 -3.714,2.012 -4.725,0.964 -22.785,0.988 -27.544,0 -2.27,-0.471 -2.941,-1.304 -3.791,-2.089 -0.668,-0.616 -0.955,-1.235 -1.238,-2.012 -0.311,-0.852 -0.524,-1.997 -0.465,-2.94 0.058,-0.912 0.335,-1.828 0.774,-2.63 0.453,-0.828 1.204,-1.711 1.934,-2.244 0.675,-0.493 1.718,-0.36 2.244,-0.929 0.562,-0.607 0.479,-1.943 0.929,-2.708 0.419,-0.713 0.87,-1.282 1.624,-1.779 0.921,-0.607 2.259,-1.101 3.714,-1.393 1.731,-0.347 5.313,0.584 6.113,-0.309 0.673,-0.754 -0.833,-2.643 -0.619,-3.946 0.226,-1.38 1.26,-3.171 2.089,-4.101 0.663,-0.745 1.904,-0.742 2.244,-1.393 0.327,-0.626 -0.225,-1.581 -0.155,-2.398 0.073,-0.857 0.246,-1.772 0.619,-2.631 0.401,-0.924 0.86,-1.894 1.779,-2.708 1.145,-1.014 3.385,-2.193 4.952,-2.631 1.352,-0.378 2.555,-0.274 3.869,-0.154 1.367,0.124 3.016,0.399 4.178,0.928 1.034,0.471 1.929,1.269 2.553,1.934 0.518,0.553 0.828,1.01 1.083,1.703 0.299,0.809 0.46,2.078 0.464,2.94 0.005,0.729 -0.647,1.581 -0.309,1.934 0.409,0.428 2.045,0.192 3.172,0 1.277,-0.218 3.423,-0.525 4.101,-1.393 0.61,-0.781 -0.181,-2.166 0.155,-3.327 0.39,-1.348 1.276,-3.227 2.321,-4.255 0.976,-0.96 2.236,-1.487 3.636,-1.857 1.569,-0.415 3.922,-0.301 5.416,-0.31 z"
           style="fill:#fff6a9;stroke:#fff6a9;stroke-width:2px"
           id="path26" />
        <path
           opacity="0.996078431372549"
           d="m 316.4,218.609 c 4.58,-0.411 22.994,1.776 27.985,1.749 2.33,-0.012 2.866,-0.741 4.154,-0.437 1.301,0.307 2.778,1.395 3.607,2.296 0.714,0.774 1.092,1.685 1.312,2.623 0.225,0.955 0.183,2.076 0,3.061 -0.182,0.983 -0.981,2.018 -1.093,2.842 -0.09,0.663 0.284,1.083 0.219,1.749 -0.081,0.822 -0.995,1.763 -0.875,2.843 0.151,1.358 0.591,3.563 2.405,4.7 2.826,1.772 10.853,1.796 15.851,2.187 4.616,0.361 9.79,0.627 13.118,0.218 2.403,-0.295 4.391,-0.166 5.575,-1.64 1.454,-1.809 1.68,-7.321 1.312,-9.619 -0.259,-1.615 -1.662,-2.374 -1.968,-3.499 -0.266,-0.979 -0.224,-1.884 0,-2.842 0.244,-1.044 0.606,-2.318 1.531,-3.17 1.112,-1.025 3.174,-1.799 5.138,-2.186 2.227,-0.44 4.275,-0.178 7.652,0 5.023,0.263 16.34,2.316 20.551,1.967 2.358,-0.195 3.083,-1.6 4.592,-1.53 1.515,0.07 3.415,0.992 4.482,1.968 0.98,0.896 1.493,2.97 1.858,3.498 0.155,0.224 0.181,0.077 0.328,0.328 0.033,0.056 0.075,0.127 0.124,0.21 -0.19,0.303 -0.362,0.63 -0.509,0.982 -0.582,1.389 -0.726,3.431 -0.875,5.247 -0.108,1.319 -0.207,2.95 -0.159,4.315 -0.185,0.062 -0.368,0.205 -0.549,0.615 -1.484,3.371 -2.354,26.541 -3.935,32.576 -0.805,3.071 -1.631,4.042 -2.624,5.466 -0.829,1.189 -1.685,2.057 -2.733,2.733 -1.033,0.666 -1.412,1 -3.498,1.312 -4.637,0.693 -19.383,0.549 -27.548,0.218 -7.02,-0.284 -11.848,-1.526 -18.802,-1.749 -7.986,-0.256 -17.986,0.701 -26.673,0.656 -8.427,-0.043 -20.48,-0.233 -24.706,-0.874 -1.924,-0.292 -2.336,-0.546 -3.279,-1.094 -0.903,-0.524 -1.692,-1.283 -2.296,-2.077 -0.591,-0.777 -1.019,-1.596 -1.312,-2.623 -0.337,-1.183 -0.395,-3.499 -0.437,-4.154 -0.017,-0.266 -0.028,-0.275 0,-0.438 0.033,-0.194 0.229,-0.464 0.219,-0.655 -0.01,-0.167 -0.183,-0.289 -0.219,-0.438 -0.034,-0.142 0.021,-0.191 0,-0.437 -0.046,-0.539 -0.471,-2.442 -0.437,-3.061 0.018,-0.34 0.229,-0.464 0.218,-0.656 -0.009,-0.166 -0.183,-0.288 -0.218,-0.437 -0.034,-0.143 0.006,-0.144 0,-0.437 -0.019,-0.856 -0.243,-3.675 -0.219,-6.341 0.033,-3.682 1.075,-10.55 0.656,-14.211 -0.309,-2.698 -1.686,-4.605 -1.968,-6.34 -0.212,-1.309 -0.106,-2.719 0,-3.28 0.05,-0.262 0.267,-0.219 0.219,-0.437 -0.096,-0.438 -1.376,-1.235 -1.749,-2.186 -0.447,-1.139 -0.791,-2.996 -0.438,-4.373 0.369,-1.436 1.639,-3.193 2.733,-4.045 0.954,-0.741 1.297,-0.915 3.28,-1.093 z"
           style="opacity:1;isolation:auto;mix-blend-mode:normal;fill:#925711"
           id="path28" />
        <path
           stroke-width="0"
           d="m 302.938,169.283 c 1.02,-0.154 2.342,-0.096 3.42,0.19 1.075,0.286 1.827,1.271 3.041,1.521 1.432,0.294 3.11,-0.244 5.131,-0.19 2.548,0.067 6.415,0.839 9.123,0.76 2.338,-0.069 3.917,-0.78 6.271,-0.95 2.746,-0.199 5.284,-0.144 9.313,0 5.807,0.207 17.192,1.461 23.185,1.52 4.325,0.043 6.922,-0.609 10.263,-0.57 3.242,0.038 6.455,0.773 9.502,0.76 2.897,-0.012 4.269,-0.559 8.362,-0.76 7.067,-0.347 25.126,-0.852 32.879,-0.57 5.017,0.182 8.32,1.261 11.022,1.14 1.849,-0.082 2.796,-1.09 4.182,-0.95 1.434,0.144 3.301,1.003 4.276,1.9 0.849,0.782 1.236,1.911 1.52,2.946 0.069,0.252 0.131,0.506 0.182,0.764 -0.882,1.133 -1.696,2.966 -2.002,3.367 -0.123,0.162 -0.082,0.068 -0.21,0.21 -0.347,0.385 -1.809,1.878 -2.313,2.734 -0.368,0.624 -0.556,1.105 -0.668,1.751 -0.479,0.157 -0.945,0.334 -1.356,0.581 -1.344,0.807 -3.171,1.718 -3.706,2.946 -0.509,1.17 0.521,2.859 0.381,4.181 -0.135,1.269 -0.607,2.707 -1.141,3.611 -0.436,0.739 -0.949,1.169 -1.615,1.615 -0.733,0.492 -1.758,0.954 -2.661,1.141 -0.872,0.18 -1.685,0.326 -2.66,0 -0.284,-0.095 -0.605,-0.228 -0.942,-0.393 0.077,-0.218 0.143,-0.429 0.198,-0.629 0.258,-0.935 0.181,-1.788 0,-2.661 -0.187,-0.902 -0.487,-1.865 -1.14,-2.66 -0.749,-0.913 -2.048,-1.942 -3.326,-2.376 -0.95,-0.323 -2.067,-0.456 -3.193,-0.383 -0.301,-0.068 -0.606,-0.134 -0.91,-0.211 -1.365,-0.347 -3.028,-0.657 -4.561,-0.57 -1.571,0.089 -2.824,0.927 -4.751,1.141 -2.474,0.274 -5.706,0.27 -9.122,0 -4.037,-0.32 -10.841,-1.221 -13.684,-2.091 -1.669,-0.511 -2.01,-1.548 -3.231,-1.71 -1.345,-0.179 -3.118,1.157 -4.561,0.95 -1.273,-0.183 -2.169,-1.413 -3.53,-1.995 0.069,-0.17 0.128,-0.332 0.174,-0.482 0.297,-0.969 0.219,-1.758 0,-2.661 -0.241,-0.995 -0.748,-2.213 -1.52,-3.04 -0.814,-0.872 -1.964,-1.611 -3.326,-1.996 -1.61,-0.455 -4.2,-0.51 -5.892,-0.19 -1.473,0.279 -2.832,0.83 -3.801,1.711 -0.956,0.869 -1.69,2.41 -1.995,3.515 -0.258,0.935 -0.2,1.773 0,2.661 0.024,0.104 0.049,0.21 0.076,0.317 -0.125,-0.074 -0.137,-0.173 -0.331,-0.121 -0.549,0.149 -1.634,1.677 -2.66,2.091 -1.056,0.426 -2.397,0.651 -3.611,0.38 -0.711,-0.158 -1.609,-0.622 -2.404,-1.124 -0.188,-1.242 -0.719,-2.57 -1.279,-3.434 -0.671,-1.033 -1.583,-1.743 -2.756,-2.185 -1.365,-0.515 -3.523,-0.355 -5.131,-0.38 -1.48,-0.023 -2.939,-0.127 -4.181,0.19 -1.142,0.292 -2.197,0.703 -3.041,1.52 -0.427,0.415 -0.86,0.988 -1.232,1.613 -0.198,-0.009 -0.261,-0.004 -0.407,0.189 -0.146,0.193 -0.178,0.544 -0.189,0.99 -0.159,0.38 -0.283,0.756 -0.357,1.104 -0.125,0.586 -0.118,1.223 -0.038,1.838 -0.984,2.48 -4.299,7.842 -5.972,9.561 -0.065,0.067 -0.129,0.131 -0.192,0.191 -0.476,1.302 -1.54,2.801 -2.406,3.566 -0.801,0.708 -1.758,0.953 -2.66,1.14 -0.873,0.181 -1.714,0.272 -2.661,0 -1.148,-0.329 -2.711,-1.197 -3.706,-2.186 -1.007,-1 -1.85,-2.583 -2.281,-3.801 -0.151,-0.426 -0.278,-0.826 -0.362,-1.223 -1.441,-2.203 -3.576,-6.481 -4.832,-7.949 -0.821,-0.96 -1.292,-0.789 -2.09,-1.616 -1.174,-1.214 -3.336,-3.611 -4.182,-5.511 -0.766,-1.722 -1.26,-3.682 -0.95,-5.321 0.307,-1.62 1.744,-3.587 2.756,-4.466 0.77,-0.669 1.55,-0.811 2.471,-0.951 z"
           style="fill:#6e400c;stroke:#6e400c;stroke-width:2px"
           id="path30" />
        <path
           stroke-width="0"
           d="m 361.095,146.119 c 14.481,-0.134 45.691,-1.796 55.77,0.919 5.397,1.454 5.147,5.027 7.362,7.308 1.853,1.909 2.876,4.261 3.577,6.26 0.608,1.735 1.077,3.337 0.715,5.007 -0.399,1.847 -1.62,4.421 -3.398,5.545 -0.576,0.364 -1.256,0.61 -2.008,0.774 -3.354,-0.173 -7.084,-0.18 -9.211,0.018 -2.65,-0.423 -5.482,-1.203 -9.527,-1.508 -8.319,-0.628 -21.393,-0.817 -34.338,-0.715 -15.31,0.12 -43.984,3.425 -52.222,1.788 -3.579,-0.711 -4.528,-1.891 -5.544,-3.398 -0.919,-1.363 -0.917,-3.074 -0.716,-5.007 0.254,-2.441 1.515,-6.273 2.862,-8.585 1.186,-2.035 2.887,-3.521 4.471,-4.829 1.47,-1.213 3.009,-2.393 4.65,-2.861 1.585,-0.453 3.31,-0.17 5.008,0 1.758,0.175 2.549,0.947 5.365,1.073 5.351,0.24 16.145,-1.686 27.184,-1.789 z"
           style="fill:#925711;stroke-width:2px"
           id="path32" />
        <g
           data-name="17-pirate treasure"
           transform="matrix(2.455576,0,0,2.455576,292.76913,138.68741)"
           id="g96">
          <path
             d="M 54.57,64 H 9.43 A 6.977,6.977 0 0 1 2.465,57.7 L 0.005,33.1 A 1,1 0 0 1 1,32 h 24 v 2 H 2.105 l 2.35,23.5 A 4.985,4.985 0 0 0 9.43,62 h 45.14 a 4.985,4.985 0 0 0 4.975,-4.5 L 61.9,34 H 39 v -2 h 24 a 1,1 0 0 1 1,1.1 L 61.54,57.7 A 6.977,6.977 0 0 1 54.57,64 Z"
             id="path34" />
          <path
             d="M 37,43 H 27 A 3,3 0 0 1 24,40 V 30 a 3,3 0 0 1 3,-3 h 10 a 3,3 0 0 1 3,3 v 10 a 3,3 0 0 1 -3,3 z M 27,29 a 1,1 0 0 0 -1,1 v 10 a 1,1 0 0 0 1,1 h 10 a 1,1 0 0 0 1,-1 V 30 a 1,1 0 0 0 -1,-1 z"
             id="path36" />
          <path
             d="M 52.239,58 H 50 v -2 h 2.239 a 2.013,2.013 0 0 0 1.994,-1.834 L 56,32.917 58,33.083 56.23,54.332 A 4.024,4.024 0 0 1 52.239,58 Z"
             id="path38" />
          <rect
             x="46"
             y="56"
             width="2"
             height="2"
             id="rect40" />
          <path
             d="M 44,58 H 11.761 A 4.024,4.024 0 0 1 7.774,54.332 L 6,33.083 8,32.917 9.767,54.166 A 2.013,2.013 0 0 0 11.761,56 H 44 Z"
             id="path42" />
          <rect
             x="7"
             y="37"
             width="11"
             height="2"
             id="rect44" />
          <rect
             x="20"
             y="37"
             width="2"
             height="2"
             id="rect46" />
          <rect
             x="42"
             y="37"
             width="15"
             height="2"
             id="rect48" />
          <path
             d="m 36,40 h -8 a 1,1 0 0 1 -1,-1 v -8 a 1,1 0 0 1 1,-1 h 8 a 1,1 0 0 1 1,1 v 8 a 1,1 0 0 1 -1,1 z m -7,-2 h 6 v -6 h -6 z"
             id="path50" />
          <rect
             x="31"
             y="33"
             width="2"
             height="4"
             id="rect52" />
          <rect
             x="7"
             y="58"
             width="2"
             height="2"
             id="rect54" />
          <rect
             x="55"
             y="58"
             width="2"
             height="2"
             id="rect56" />
          <rect
             x="59"
             y="35"
             width="2"
             height="2"
             id="rect58" />
          <rect
             x="3"
             y="36"
             width="2"
             height="2"
             id="rect60" />
          <path
             d="m 19.933,57.361 -1.866,-0.722 c 0.948,-2.443 3.358,-4.453 6.612,-5.516 a 30.39,30.39 0 0 1 6.178,-1.118 c 0.6,-0.067 1.2,-0.133 1.8,-0.21 a 14.746,14.746 0 0 0 6.953,-2.3 c 0.437,-0.322 1.446,-1.176 1.413,-2.145 l -0.005,-0.1 a 1.722,1.722 0 0 1 1.621,-2 A 72.089,72.089 0 0 1 55.954,42 H 56 v 2 H 55.954 A 69.974,69.974 0 0 0 43.02,45.208 v 0.071 A 4.706,4.706 0 0 1 40.8,49.1 16.791,16.791 0 0 1 32.913,51.779 c -0.61,0.078 -1.224,0.146 -1.838,0.213 A 28.673,28.673 0 0 0 25.3,53.023 c -1.269,0.415 -4.332,1.667 -5.367,4.338 z"
             id="path62" />
          <path
             d="M 8.153,50.988 7.847,49.012 a 58.029,58.029 0 0 0 12.505,-3.2 c 0.311,-0.125 0.618,-0.252 0.9,-0.393 a 26.86,26.86 0 0 0 -6.556,-1.19 29.187,29.187 0 0 1 -7.037,-1.288 l 0.674,-1.882 a 27.33,27.33 0 0 0 6.56,1.18 24.8,24.8 0 0 1 8.14,1.75 1.347,1.347 0 0 1 0.442,2.358 8.081,8.081 0 0 1 -2.375,1.321 59.943,59.943 0 0 1 -12.947,3.32 z"
             id="path64" />
          <path
             d="m 54.964,54 c -3.526,0 -6.309,0 -9.886,-0.271 A 2.189,2.189 0 0 1 44.189,49.596 C 47.578,47.77 51.1,47 56,47 v 2 c -4.548,0 -7.784,0.7 -10.822,2.335 -0.095,0.051 -0.2,0.107 -0.174,0.245 a 0.2,0.2 0 0 0 0.2,0.153 C 48.73,52 51.481,52 54.964,52 Z"
             id="path66" />
          <path
             d="m 1.707,33.707 -1.414,-1.414 8,-8 A 1,1 0 0 1 9,24 h 6 v 2 H 9.414 Z"
             id="path68" />
          <rect
             x="60"
             y="28.171"
             width="2"
             height="5.6570001"
             transform="rotate(-44.997,60.999005,30.99968)"
             id="rect70" />
          <path
             d="M 63,14 H 56 A 1,1 0 0 1 55,13 C 55,7.608 52.9,5.85 51.65,5.281 A 2.791,2.791 0 0 1 50,2.757 2.76,2.76 0 0 1 52.757,0 H 53 c 6.271,0 11,5.589 11,13 a 1,1 0 0 1 -1,1 z m -6.023,-2 h 4.99 C 61.579,6.233 57.854,2 53,2 H 52.757 A 0.758,0.758 0 0 0 52,2.757 a 0.777,0.777 0 0 0 0.478,0.7 C 54.077,4.187 56.7,6.252 56.977,12 Z"
             id="path72" />
          <path
             d="M 8,14 H 1 A 1,1 0 0 1 0,13 C 0,5.589 4.729,0 11,0 h 0.243 A 2.76,2.76 0 0 1 14,2.757 2.79,2.79 0 0 1 12.349,5.281 C 11.1,5.85 9,7.608 9,13 A 1,1 0 0 1 8,14 Z M 2.033,12 h 4.99 c 0.274,-5.748 2.9,-7.813 4.5,-8.54 A 0.776,0.776 0 0 0 12.002,2.76 0.758,0.758 0 0 0 11.243,2 H 11 C 6.146,2 2.421,6.233 2.033,12 Z"
             id="path74" />
          <rect
             x="53"
             y="12"
             width="3"
             height="2"
             id="rect76" />
          <rect
             x="8"
             y="12"
             width="43"
             height="2"
             id="rect78" />
          <rect
             x="13"
             y="2"
             width="38"
             height="2"
             id="rect80" />
          <rect
             x="53.157001"
             y="17.5"
             width="12.916"
             height="2"
             transform="matrix(0.524,-0.852,0.852,0.524,12.619,59.581)"
             id="rect82" />
          <rect
             x="6.1550002"
             y="21.832001"
             width="2"
             height="2.3380001"
             transform="rotate(-31.612,7.1541956,23.001491)"
             id="rect84" />
          <rect
             x="2.154"
             y="12.39"
             width="2"
             height="8.2209997"
             transform="rotate(-31.608,3.1543829,16.500403)"
             id="rect86" />
          <path
             d="M 35,14 H 29 A 1,1 0 0 1 28,13 V 3 a 1,1 0 0 1 1,-1 h 6 a 1,1 0 0 1 1,1 v 10 a 1,1 0 0 1 -1,1 z m -5,-2 h 4 V 4 h -4 z"
             id="path88" />
          <path
             d="m 56,11 c -2.92,0 -3.387,-0.019 -5.978,-0.126 L 49.744,10.862 A 8.326,8.326 0 0 1 47.655,10.588 1.386,1.386 0 0 1 46.828,10 1.256,1.256 0 0 1 46.702,9.127 1.4,1.4 0 0 1 47.439,8.276 C 47.623,8.176 47.812,8.085 48.001,8.001 44.136,8 38.708,8 35,8 V 6 c 4,0 10,0 13.884,0.007 h 0.171 a 4.474,4.474 0 0 1 1.193,0.1 1.588,1.588 0 0 1 1.365,1.637 A 1.672,1.672 0 0 1 50.791,8.9 C 52.772,8.984 53.4,9 56,9 Z"
             id="path90" />
          <path
             d="M 8,11 V 9 c 3.03,0 5.328,-0.029 8.027,-0.173 A 6.176,6.176 0 0 1 15.111,8.187 1.937,1.937 0 0 1 14.384,6.929 1.785,1.785 0 0 1 15.676,5.157 3.631,3.631 0 0 1 16.943,5.008 h 0.172 C 21,5 26,5 30,5 V 7 C 26,7 21,7 17.12,7.009 h -0.236 c 0.2,0.125 0.419,0.244 0.643,0.368 a 10.223,10.223 0 0 1 1.142,0.692 1.328,1.328 0 0 1 0.559,1.661 1.426,1.426 0 0 1 -0.8,0.709 6.67,6.67 0 0 1 -2.158,0.379 C 13.467,10.97 11.115,11 8,11 Z"
             id="path92" />
          <path
             d="M 58,34 H 45 a 3,3 0 0 1 0,-6 v 2 a 1,1 0 0 0 0,2 h 13 a 1,1 0 0 0 0,-2 1,1 0 0 1 0,-2 1,1 0 0 0 0,-2 h -6 a 1,1 0 0 1 0,-2 1,1 0 0 0 0,-2 H 44 A 0.988,0.988 0 0 0 43.142,22.5 1,1 0 0 1 42.277,23 H 42 a 1,1 0 0 1 -1,-1 1,1 0 0 0 -1,-1 h -8 a 1,1 0 0 1 0,-2 1,1 0 0 0 0,-2 h -4 a 1,1 0 0 0 0,2 1,1 0 0 1 0,2 h -2 a 1,1 0 0 0 -0.938,0.674 1,1 0 0 1 -1.5,0.5 A 0.993,0.993 0 0 0 23,22 h -2 a 1,1 0 0 1 0,-2 1,1 0 0 0 0,-2 h -4 a 1,1 0 0 0 0,2 1,1 0 0 1 0,2 h -2 a 1,1 0 0 0 0,2 1,1 0 0 1 0,2 h -5 a 1,1 0 0 0 0,2 1,1 0 0 1 0,2 H 8 a 1,1 0 0 0 0,2 h 4 a 1.02,1.02 0 0 0 0.251,-0.039 1,1 0 0 1 0.5,0 A 1.02,1.02 0 0 0 13,32 h 8 a 1,1 0 0 0 0,-2 h -3 v -2 h 3 a 3,3 0 0 1 0,6 H 13 A 2.805,2.805 0 0 1 12.5,33.953 2.805,2.805 0 0 1 12,34 H 8 A 3,3 0 0 1 7.211,28.105 3,3 0 0 1 10,24 h 2.171 A 3,3 0 0 1 14.211,20.105 3,3 0 0 1 17,16 h 4 a 3,3 0 0 1 2.86,3.907 3.01,3.01 0 0 1 1.352,-0.8 A 2.967,2.967 0 0 1 25,18 3,3 0 0 1 28,15 h 4 a 3,3 0 0 1 2.829,4 H 40 A 3,3 0 0 1 42.531,20.391 2.972,2.972 0 0 1 44,20 h 8 a 3,3 0 0 1 2.829,4 H 58 A 3,3 0 0 1 60.234,29 3,3 0 0 1 58,34 Z"
             id="path94" />
        </g>
      </g>
      <g
         transform="matrix(0.656327,0,0,0.656327,432.14757,224.37595)"
         id="g112">
        <g
           transform="translate(-84.595909,-214.63541)"
           id="g110">
          <path
             stroke-width="0"
             d="m 48.051,160.747 c 0.631,-0.075 1.169,0.012 1.742,0.268 0.657,0.294 1.486,0.875 1.943,1.541 0.47,0.686 0.426,1.841 0.804,2.546 0.337,0.627 0.648,1.002 1.273,1.541 0.853,0.735 2.973,1.341 3.684,2.344 0.635,0.895 0.824,2.264 0.67,3.216 -0.143,0.885 -0.71,1.799 -1.407,2.344 -0.731,0.574 -1.888,0.995 -2.947,0.938 -1.198,-0.064 -2.781,-0.993 -3.886,-1.607 -0.974,-0.542 -1.68,-0.955 -2.479,-1.809 -0.98,-1.05 -2.293,-2.867 -2.813,-4.288 -0.461,-1.256 -0.623,-2.693 -0.402,-3.751 0.194,-0.93 0.759,-1.797 1.407,-2.345 0.633,-0.536 1.676,-0.849 2.411,-0.938 z m -10.767,29.651 c 1.101,-0.234 3.382,-0.333 4.69,0 1.128,0.288 1.862,1.35 2.813,1.608 0.882,0.239 1.624,0.093 2.68,0 1.344,-0.118 3.172,-0.668 4.823,-0.804 1.696,-0.139 3.839,-0.167 5.226,0 1.053,0.127 1.787,0.312 2.545,0.67 0.731,0.344 1.481,0.851 1.943,1.407 0.423,0.508 0.671,1.136 0.804,1.741 0.132,0.601 0.213,1.175 0,1.876 -0.28,0.92 -0.882,2.309 -1.943,3.149 -1.3,1.029 -3.689,1.735 -5.761,2.144 -2.196,0.433 -5.231,0.367 -7.101,0.268 -1.392,-0.075 -2.259,-0.122 -3.35,-0.536 -1.168,-0.444 -2.977,-1.775 -3.416,-2.144 -0.163,-0.137 -0.078,-0.146 -0.201,-0.268 -0.238,-0.235 -0.748,-0.859 -1.34,-1.072 -0.722,-0.259 -2.019,0.132 -2.814,-0.134 -0.721,-0.242 -1.358,-0.656 -1.808,-1.273 -0.506,-0.694 -1.015,-1.868 -0.938,-2.813 0.08,-0.997 0.927,-2.382 1.54,-3.015 0.476,-0.492 0.858,-0.645 1.608,-0.804 z m 54.052,11.353 c 1.349,-0.09 3.674,0.033 5.627,0.804 2.325,0.917 6.134,3.335 7.302,4.89 0.762,1.015 0.836,1.998 0.67,2.948 -0.175,0.996 -1.014,2.294 -1.809,2.88 -0.731,0.54 -1.916,0.661 -2.68,0.67 -0.622,0.008 -0.694,-0.304 -1.607,-0.402 -1.947,-0.208 -8.794,0.2 -10.987,-0.134 -1.196,-0.182 -1.687,-0.439 -2.278,-0.804 -0.501,-0.309 -0.837,-0.704 -1.138,-1.138 -0.302,-0.436 -0.555,-0.935 -0.67,-1.474 -0.122,-0.572 -0.159,-1.212 0,-1.876 0.185,-0.774 0.498,-1.656 1.205,-2.479 0.927,-1.077 3.186,-2.586 4.355,-3.215 0.803,-0.433 1.101,-0.609 2.01,-0.67 z m 43.458,18.44 c 1.557,-0.313 3.275,-0.259 4.421,0 0.889,0.202 1.544,0.47 2.077,1.072 0.609,0.687 1.139,2.121 1.206,3.015 0.056,0.748 -0.224,1.433 -0.536,2.01 -0.301,0.555 -0.947,1.185 -1.273,1.406 -0.189,0.129 -0.397,0.008 -0.469,0.134 -0.091,0.16 0.214,0.466 0.134,0.871 -0.138,0.704 -0.443,2.164 -1.541,3.149 -1.658,1.488 -6.267,3.323 -8.976,4.019 -2.25,0.578 -4.552,0.763 -6.164,0.402 -1.286,-0.288 -2.406,-0.992 -3.014,-1.809 -0.563,-0.755 -0.851,-1.796 -0.67,-2.813 0.221,-1.244 1.229,-2.728 2.479,-4.087 1.567,-1.703 4.517,-3.837 6.699,-5.091 1.915,-1.1 3.859,-1.922 5.627,-2.278 z m -95.291,0.851 c 1.037,-0.096 1.483,-0.098 2.412,0.268 1.297,0.511 3.564,2.056 4.622,3.149 0.839,0.866 1.312,1.668 1.608,2.679 0.314,1.073 0.278,2.562 0.134,3.618 -0.125,0.917 -0.44,1.773 -0.804,2.411 -0.31,0.545 -0.565,0.959 -1.139,1.273 -0.745,0.409 -2.332,0.698 -3.215,0.67 -0.698,-0.022 -0.913,-0.458 -1.742,-0.536 -1.328,-0.124 -4.304,0.626 -5.895,0.402 -1.262,-0.177 -2.201,-0.676 -3.082,-1.206 -0.818,-0.492 -1.42,-1.067 -2.077,-1.808 -0.736,-0.831 -1.682,-2.607 -2.076,-3.015 -0.162,-0.167 -0.204,-0.057 -0.335,-0.201 -0.245,-0.268 -0.759,-1.028 -0.938,-1.608 -0.18,-0.581 -0.302,-1.208 -0.134,-1.875 0.203,-0.809 0.927,-2.042 1.541,-2.613 0.511,-0.476 1.164,-0.675 1.741,-0.804 0.539,-0.12 1.07,-0.12 1.608,0 0.578,0.129 0.903,0.767 1.742,0.804 1.345,0.058 4.516,-1.467 6.029,-1.608 z"
             style="fill:#0084ff;stroke-width:2px"
             id="path100" />
          <path
             d="m 96.749,105.779 c 0.93,-0.241 1.73,-0.267 2.682,0 1.146,0.322 2.854,1.356 3.689,2.124 0.648,0.597 0.749,1.874 1.229,1.9 0.515,0.028 1.044,-1.463 1.789,-2.012 0.798,-0.587 1.895,-1.119 2.906,-1.341 1.002,-0.221 1.925,-0.294 3.129,0 1.584,0.386 4.067,1.616 5.589,2.682 1.349,0.946 2.274,1.998 3.241,3.242 1.019,1.309 2.189,2.783 2.683,4.471 0.524,1.79 0.586,3.99 0.223,6.036 -0.389,2.197 -1.463,4.593 -2.682,6.706 -1.257,2.179 -2.801,4.348 -4.806,6.147 -2.146,1.926 -5.337,4.12 -7.824,4.918 -2.098,0.674 -4.274,0.465 -6.036,0.224 -1.53,-0.209 -2.792,-0.635 -4.024,-1.341 -1.272,-0.73 -2.195,-1.501 -3.465,-3.018 -1.843,-2.202 -5.09,-7.469 -6.259,-9.836 -0.726,-1.469 -0.915,-2.039 -1.118,-3.353 -0.244,-1.579 -0.604,-3.443 0,-5.589 0.811,-2.88 3.892,-8.28 5.701,-10.171 1.155,-1.208 2.283,-1.511 3.353,-1.789 z m 3.623,35.861 c 1.457,-0.119 3.583,1.162 5.142,1.117 1.39,-0.04 2.476,-1.227 3.8,-1.117 1.458,0.121 3.521,0.985 4.582,2.123 1.06,1.137 1.654,3.271 1.789,4.695 0.115,1.221 -0.53,1.704 -0.671,3.353 -0.242,2.831 -0.086,8.213 0,13.189 0.103,5.893 1.504,16.212 0.671,20.119 -0.46,2.158 -1.159,2.939 -2.347,3.912 -1.302,1.067 -3.508,1.676 -5.365,2.012 -0.96,0.174 -1.976,0.288 -2.99,0.297 2.361,0.575 3.163,1.852 4.839,2.217 1.661,0.361 3.714,-0.203 5.141,0 1.157,0.164 1.865,0.386 2.906,0.894 1.27,0.619 3.097,1.677 4.136,2.794 0.961,1.034 1.633,2.244 2.012,3.577 0.4,1.408 0.651,3.15 0.223,4.694 -0.471,1.702 -1.972,3.976 -3.241,5.03 -1.061,0.882 -2.18,1.099 -3.577,1.342 -1.652,0.286 -4.066,0.261 -5.812,0 -1.57,-0.236 -3.148,-0.689 -4.247,-1.342 -0.939,-0.557 -1.524,-1.272 -2.124,-2.123 -0.646,-0.915 -0.847,-2.511 -1.565,-3.242 -0.631,-0.642 -1.064,-0.819 -2.347,-1.118 -2.409,-0.559 -9.023,-1.354 -12.519,-0.894 -2.882,0.379 -5.937,1.341 -7.265,2.683 -1.026,1.037 -0.542,2.909 -1.118,3.912 -0.487,0.849 -1.027,1.414 -1.9,1.9 -1.062,0.591 -2.885,1.17 -4.247,1.118 -1.317,-0.051 -2.12,-1.463 -3.8,-1.342 -2.55,0.184 -7.092,3.716 -10.507,4.471 -3.128,0.692 -5.958,0.516 -9.165,0.224 -3.473,-0.316 -7.537,-1.069 -10.954,-2.236 -3.313,-1.131 -8.068,-3.67 -9.277,-4.582 -0.468,-0.353 -0.344,-0.529 -0.559,-0.783 -0.228,-0.268 -0.475,-0.382 -0.783,-0.782 -0.482,-0.627 -1.495,-1.881 -1.788,-2.906 -0.283,-0.991 -0.24,-2.097 0,-3.13 0.254,-1.092 0.837,-2.43 1.565,-3.241 0.678,-0.755 1.573,-1.26 2.571,-1.565 1.096,-0.335 2.486,-0.609 3.8,-0.224 1.571,0.461 3.255,2.524 4.918,3.354 1.544,0.77 2.618,1.129 4.694,1.564 2.974,0.624 8.809,1.79 12.072,1.342 2.611,-0.359 4.933,-1.621 6.371,-2.795 1.137,-0.928 1.442,-2.52 2.124,-3.241 0.498,-0.527 0.974,-0.551 1.453,-1.006 0.567,-0.54 0.894,-1.564 1.676,-2.124 0.898,-0.642 2.213,-1.102 3.577,-1.341 1.563,-0.273 3.886,-0.053 5.365,0 1.159,0.042 1.709,0.44 2.906,0.224 1.701,-0.308 3.534,-2.278 6.483,-2.683 3.123,-0.429 9.095,-0.008 13.625,0.606 -1.54,-0.554 -3.121,-1.39 -3.962,-2.337 -0.968,-1.092 -0.998,-1.55 -1.341,-4.024 -0.811,-5.862 -1.877,-30.536 -0.67,-36.661 0.554,-2.816 1.505,-3.596 2.57,-4.583 0.896,-0.829 1.906,-1.241 3.13,-1.341 z m -75.771,14.274 c 1.661,-0.249 7.697,-0.683 10.507,0 2.283,0.555 4.302,1.488 5.477,3.018 1.189,1.549 0.75,3.934 1.564,6.259 0.987,2.816 2.625,7.633 4.248,9.501 1.129,1.3 2.247,1.472 3.688,2.012 1.658,0.621 4.171,0.623 5.812,1.341 1.466,0.641 2.818,1.358 3.689,2.571 0.935,1.303 1.644,3.855 1.565,5.142 -0.058,0.932 -0.402,1.599 -1.118,2.123 -0.938,0.688 -2.523,0.955 -4.583,1.118 -3.067,0.242 -10.318,0.062 -12.742,-0.671 -1.337,-0.404 -1.673,-0.95 -2.347,-1.676 -0.721,-0.777 -1.422,-1.583 -1.788,-2.906 -0.5,-1.802 0.423,-4.87 -0.224,-7.377 -0.715,-2.773 -3.51,-6.282 -4.247,-8.495 -0.508,-1.523 0.419,-2.946 -0.559,-3.689 -1.387,-1.054 -7.031,0.343 -8.942,-0.223 -1.215,-0.36 -1.843,-0.902 -2.347,-1.677 -0.526,-0.808 -0.864,-2.151 -0.671,-3.129 0.198,-1 1.309,-2.288 1.9,-2.795 0.391,-0.335 0.42,-0.342 1.118,-0.447 z m 104.488,59.011 c 1.545,-0.104 2.301,-0.109 3.13,0.223 0.721,0.289 1.287,0.809 1.676,1.453 0.426,0.704 0.815,1.76 0.671,2.683 -0.163,1.043 -1.061,2.472 -1.9,3.241 -0.787,0.721 -1.545,0.955 -2.906,1.342 -2.052,0.583 -6.804,-0.049 -8.83,1.341 -1.822,1.25 -2.723,5.279 -3.242,6.036 -0.178,0.26 -0.164,0.151 -0.335,0.335 -0.334,0.359 -0.944,1.378 -1.676,1.9 -0.824,0.588 -1.776,1.085 -3.13,1.341 -1.822,0.346 -5.537,0.149 -7.154,0 -1.003,-0.092 -1.56,-0.648 -2.123,-0.447 -0.545,0.195 -0.393,1.2 -1.23,1.565 -1.512,0.66 -4.854,0.498 -8.718,0.447 -5.766,-0.076 -16.557,-1.276 -23.696,-1.565 -6.244,-0.252 -13.871,0.516 -16.989,-0.223 -1.611,-0.382 -1.975,-0.753 -2.795,-1.677 -0.559,-0.631 -1.099,-1.908 -1.566,-3.06 0.533,-0.11 1.04,-0.273 1.389,-0.447 0.57,-0.285 0.876,-0.68 1.182,-1.183 0.342,-0.56 0.717,-1.309 0.696,-2.086 -0.025,-0.909 -0.322,-2.065 -1.113,-3.061 -1.048,-1.318 -3.531,-3.168 -5.356,-3.825 -1.637,-0.59 -3.717,-0.514 -5.008,-0.278 -0.985,0.179 -1.725,0.559 -2.295,1.112 -0.559,0.543 -1.013,1.331 -1.113,2.157 -0.06,0.494 0.003,1.142 0.148,1.76 -0.588,0.029 -1.195,0.063 -1.829,0.081 -2.378,0.069 -6.518,-0.237 -7.936,0.447 -0.844,0.407 -0.94,1.542 -1.23,1.789 -0.14,0.119 -0.38,0.01 -0.335,0.111 0.129,0.292 3.499,1.383 4.247,2.459 0.645,0.928 0.683,2.382 0.447,3.354 -0.22,0.911 -0.805,1.836 -1.676,2.347 -1.043,0.612 -3.177,0.799 -4.471,0.67 -1.115,-0.111 -1.904,-1.004 -2.906,-1.117 -1.009,-0.114 -2.205,0.669 -3.13,0.447 -0.892,-0.214 -1.682,-0.772 -2.347,-1.677 -0.875,-1.19 -1.661,-3.8 -2.012,-5.365 -0.283,-1.264 -0.579,-2.057 -0.224,-3.353 0.49,-1.785 2.367,-5.115 3.913,-6.371 1.256,-1.021 3.39,-1.277 4.247,-1.341 0.456,-0.034 0.231,0.186 0.894,0.223 2.225,0.124 14.609,-1.206 19.001,-0.894 2.802,0.199 4.394,1.311 6.036,1.341 1.262,0.023 1.68,-0.608 3.13,-0.67 2.276,-0.099 8.05,1.184 9.836,0.894 0.904,-0.147 0.629,-0.693 1.565,-0.894 1.942,-0.418 5.746,-0.048 11.177,0 9.303,0.082 33.155,1.321 42.921,0.67 6.085,-0.405 10.224,-2.051 12.965,-2.235 z"
             style="fill:#fae742"
             id="path102" />
          <path
             d="m 131.751,210.346 h -4.03 c 1.46,-2.32 2.33,-5.05 2.33,-7.99 0,-6.4 -4.05,-11.87 -9.71,-14.01 v -50.82 l 5.28,-7.22 c 2.11,-2.89 3.23,-6.3 3.23,-9.88 v -2.2 c 0,-9.26 -7.56,-16.78 -16.84,-16.78 h -13.41 c -9.28,0 -16.83,7.52 -16.83,16.78 v 2.2 c 0,3.58 1.12,6.99 3.23,9.88 l 5.27,7.22 v 49.84 h -24.25 v -1.67 c 0,-10.49 -4.7,-20.28 -12.89,-26.87 -6.15,-4.95 -13.88,-7.68 -21.78,-7.68 h -7.03 c -4.7,0 -8.53,3.82 -8.53,8.51 0,4.69 3.83,8.51 8.53,8.51 2.47,0 4.9,0.85 6.83,2.4 l 0.32,0.27 c 2.85,2.28 4.48,5.68 4.48,9.32 v 7.43 c -7.09,1.19 -12.52,7.35 -12.52,14.77 0,2.94 0.87,5.67 2.33,7.99 h -4.03 c -8.27,0 -14.99,6.73 -14.99,14.99 0,8.27 6.72,14.99 14.99,14.99 h 110.02 c 8.27,0 14.99,-6.72 14.99,-14.99 0,-8.26 -6.72,-14.99 -14.99,-14.99 z m -42.98,-89.92 v -2.2 c 0,-4.27 2.76,-7.9 6.6,-9.23 v 2.85 c 0,1.38 1.12,2.5 2.5,2.5 1.38,0 2.5,-1.12 2.5,-2.5 v -3.4 h 2.44 v 6.47 c 0,1.38 1.12,2.5 2.5,2.5 1.38,0 2.5,-1.12 2.5,-2.5 v -6.47 h 2.44 v 3.4 c 0,1.38 1.12,2.5 2.5,2.5 1.38,0 2.5,-1.12 2.5,-2.5 v -2.85 c 3.83,1.33 6.6,4.96 6.6,9.23 v 2.2 c 0,2.08 -0.65,4.07 -1.88,5.75 l -6.71,9.18 c -1.85,2.52 -4.82,4.03 -7.95,4.03 -3.14,0 -6.11,-1.51 -7.95,-4.03 l -6.71,-9.18 c -1.23,-1.68 -1.88,-3.67 -1.88,-5.75 z m 10.98,40.46 c 0.48,0.43 1.07,0.64 1.66,0.64 0.69,0 1.38,-0.29 1.87,-0.84 l 2.03,-2.28 2.02,2.28 c 0.49,0.55 1.18,0.84 1.87,0.84 0.59,0 1.18,-0.21 1.66,-0.64 1.03,-0.91 1.12,-2.49 0.21,-3.52 l -3.26,-3.67 v -7.51 c 1.95,-0.29 3.82,-0.92 5.53,-1.85 v 43.03 h -16.07 v -43.03 c 1.72,0.93 3.59,1.56 5.54,1.85 v 7.51 l -3.26,3.67 c -0.92,1.03 -0.83,2.61 0.2,3.52 z m -51.01,3.39 c 3.35,2.69 5.95,6.05 7.71,9.81 l -1.22,-0.18 c -4.73,-0.73 -8.43,-4.54 -9.02,-9.26 l -0.28,-2.33 c 0.97,0.6 1.92,1.24 2.81,1.96 z m -12.88,1.1 -0.33,-0.26 c -3.16,-2.55 -7.14,-3.95 -11.21,-3.95 -0.84,0 -1.53,-0.68 -1.53,-1.51 0,-0.83 0.69,-1.51 1.53,-1.51 h 7.03 c 3.15,0 6.27,0.55 9.22,1.58 l 0.68,5.53 c 0.86,6.94 6.29,12.52 13.22,13.59 l 3.83,0.59 c 0.47,2.03 0.72,4.13 0.72,6.26 v 1.67 h -16.07 v -7.21 c 0,-5.77 -2.59,-11.15 -7.09,-14.78 z m 2.57,28.99 h 24.04 c -4.45,6.33 -13,8.4 -19.89,4.65 l -7.33,-3.99 c 0.97,-0.42 2.05,-0.66 3.18,-0.66 z m -7.06,4.25 8.82,4.8 c 3.09,1.67 6.43,2.47 9.72,2.47 6.83,0 13.48,-3.43 17.31,-9.61 l 1.18,-1.91 h 46.65 c 4.41,0 8,3.58 8,7.99 0,4.41 -3.59,7.99 -8,7.99 h -5.66 c -0.89,-3.87 -3.36,-7.28 -6.9,-9.3 l -1.88,-1.07 c -3.64,-2.08 -8.01,-2.47 -11.97,-1.08 -5.08,1.79 -8.69,6.24 -9.46,11.45 h -40.75 c -4.41,0 -8,-3.58 -8,-7.99 0,-1.35 0.34,-2.63 0.94,-3.74 z m 72.8,11.73 h -19.91 c 0.72,-3.07 2.97,-5.65 6.04,-6.73 2.59,-0.91 5.45,-0.66 7.83,0.7 l 1.88,1.08 c 1.97,1.12 3.41,2.89 4.16,4.95 z m -57.04,20.6 -0.9,2.38 h -11.87 l -4.03,-3.72 c -0.57,-0.53 -0.9,-1.27 -0.9,-2.04 0,-1.39 1.05,-2.57 2.43,-2.76 l 9.31,-1.29 c 1.71,-0.23 3.47,0.35 4.7,1.57 1.53,1.53 2.03,3.83 1.26,5.86 z m 67.59,2.38 h -63.15 l 0.24,-0.61 c 1.46,-3.87 0.51,-8.25 -2.41,-11.17 -2.33,-2.31 -5.66,-3.43 -8.91,-2.98 l -9.31,1.28 c -3.85,0.53 -6.75,3.85 -6.75,7.72 0,2.16 0.92,4.24 2.51,5.71 l 0.06,0.05 h -5.27 c -4.41,0 -7.99,-3.58 -7.99,-7.99 0,-4.4 3.58,-7.99 7.99,-7.99 h 110.02 c 1.06,0 2.07,0.21 2.99,0.59 l -0.57,0.12 c -8.56,1.9 -15.65,7.53 -19.45,15.27 z m 17.03,0 h -11.31 c 3.31,-5.24 8.59,-9 14.81,-10.38 l 3.8,-0.84 c 0.44,0.99 0.69,2.08 0.69,3.23 0,4.41 -3.58,7.99 -7.99,7.99 z"
             id="path104" />
          <path
             d="m 99.711,123.346 c 0,1.57 -1.28,2.85 -2.86,2.85 -1.58,0 -2.86,-1.28 -2.86,-2.85 0,-1.57 1.28,-2.85 2.86,-2.85 1.58,0 2.86,1.28 2.86,2.85 z"
             id="path106" />
          <path
             d="m 115.516,123.462 c 0,1.57 -1.28,2.85 -2.86,2.85 -1.58,0 -2.86,-1.28 -2.86,-2.85 0,-1.57 1.28,-2.85 2.86,-2.85 1.58,0 2.86,1.28 2.86,2.85 z"
             id="path108" />
        </g>
      </g>
    </g>
    <path
       d="m 192.67,256.378 h -37.65 v -10.18 h 9.85 v -46.87 h -9.85 v -10.11 h 20.73 l 2.61,15.58 c 2.5,-5.64 5.607,-9.933 9.32,-12.88 3.707,-2.947 8.487,-4.42 14.34,-4.42 1.993,0 3.783,0.16 5.37,0.48 1.593,0.32 3.173,0.733 4.74,1.24 l -4.26,12.21 c -1.36,-0.38 -2.633,-0.667 -3.82,-0.86 -1.187,-0.193 -2.5,-0.29 -3.94,-0.29 -4.873,0 -9.083,1.823 -12.63,5.47 -3.54,3.647 -6.327,8.82 -8.36,15.52 v 24.93 h 13.55 z m 17.04,-42.42 h -10.17 v -16.54 l 1.78,-8.2 h 10.81 z m 23.978,-24.74 h 33.71 v 56.73 h 18.25 v 10.43 h -52.6 v -10.43 h 20.1 v -46.3 h -19.46 z m 23.79,-32.88 c 2.793,0 5.05,0.847 6.77,2.54 1.72,1.7 2.58,3.82 2.58,6.36 0,2.547 -0.86,4.687 -2.58,6.42 -1.72,1.74 -3.977,2.61 -6.77,2.61 -2.713,0 -4.94,-0.87 -6.68,-2.61 -1.74,-1.733 -2.61,-3.873 -2.61,-6.42 0,-2.54 0.87,-4.66 2.61,-6.36 1.74,-1.693 3.967,-2.54 6.68,-2.54 z m 81.908,90.05 c 3.14,0 6.067,-0.54 8.78,-1.62 2.713,-1.08 5.3,-2.49 7.76,-4.23 l 6.61,9.16 c -2.92,2.5 -6.47,4.527 -10.65,6.08 -4.173,1.547 -8.487,2.32 -12.94,2.32 -6.873,0 -12.747,-1.453 -17.62,-4.36 -4.873,-2.907 -8.603,-6.987 -11.19,-12.24 -2.587,-5.26 -3.88,-11.387 -3.88,-18.38 0,-6.827 1.303,-12.923 3.91,-18.29 2.607,-5.36 6.37,-9.6 11.29,-12.72 4.92,-3.113 10.833,-4.67 17.74,-4.67 4.58,0 8.8,0.677 12.66,2.03 3.86,1.36 7.4,3.373 10.62,6.04 l -6.55,8.97 c -2.627,-1.82 -5.31,-3.207 -8.05,-4.16 -2.733,-0.953 -5.54,-1.43 -8.42,-1.43 -5.3,0 -9.637,1.95 -13.01,5.85 -3.373,3.9 -5.06,10.027 -5.06,18.38 0,5.593 0.777,10.097 2.33,13.51 1.547,3.413 3.677,5.893 6.39,7.44 2.713,1.547 5.807,2.32 9.28,2.32 z m 43.948,-84.01 14.25,-1.53 v 12.7593 23.8107 c 2.713,-3.307 5.893,-5.797 9.54,-7.47 3.647,-1.673 7.397,-2.51 11.25,-2.51 6.32,0 11.027,1.747 14.12,5.24 3.1,3.5 4.65,8.41 4.65,14.73 v 48.97 h -14.25 v -46.75 c 0,-4.027 -0.763,-6.92 -2.29,-8.68 -1.527,-1.76 -3.987,-2.64 -7.38,-2.64 -2.12,0 -4.143,0.477 -6.07,1.43 -1.927,0.96 -3.707,2.2 -5.34,3.72 -1.633,1.527 -3.043,3.16 -4.23,4.9 v 48.02 h -14.25 z m 134.958,117.28 h -63.6 v -11.77 h 63.6 z"
       transform="matrix(0.41846586,0,-0.00174464,0.41846586,125.71183,-55.882537)"
       style="white-space:pre;vector-effect:non-scaling-stroke;fill:#7c8a99;fill-opacity:1;stroke:#ffffff;stroke-width:0.901412px;stroke-opacity:0;filter:url(#outline-filter-0)"
       id="path114"
       sodipodi:nodetypes="ccccccccccscccssccccccccccccccccccccccscscscscssscccsscsccsccccssscssccccsscsccsssccccccccccc" />
    <text
       xml:space="preserve"
       style="font-size:49.7983px;line-height:1.25;font-family:Arial;-inkscape-font-specification:'Arial, Normal';letter-spacing:0px;word-spacing:0px;stroke-width:1.24496"
       x="344.57971"
       y="52.603237"
       id="text1014"><tspan
         sodipodi:role="line"
         id="tspan1012"
         x="344.57971"
         y="52.603237"
         style="font-style:italic;font-variant:normal;font-weight:bold;font-stretch:normal;font-family:'MonoLisa NF';-inkscape-font-specification:'MonoLisa NF Bold Italic';fill:#bd93f9;fill-opacity:1;stroke-width:1.24496">help</tspan></text>
    <g
       id="g962"
       transform="matrix(1.3708611,0,0,1.3708611,-116.83986,-643.64855)"
       clip-path="url(#clipPath1598)">
      <path
         style="fill:#000000"
         d="m 56.39452,510.13585 c 0,-1.32826 -0.94153,-2.12734 -3.05297,-2.59109 -4.04056,-0.88746 -3.19986,-3.08429 1.01754,-2.65894 9.32239,0.94022 10.81407,-3.50307 2.60795,-7.76831 -2.71012,-1.40862 -5.36388,-3.27897 -5.89726,-4.15634 -1.47604,-2.42802 -0.0246,-6.42458 2.80076,-7.7119 1.48697,-0.67751 2.52398,-1.98054 2.52398,-3.17144 0,-1.13017 0.66136,-2.02144 1.5,-2.02144 0.825,0 1.5,0.85122 1.5,1.89159 0,1.19765 0.94321,2.12832 2.57104,2.53688 3.91591,0.98283 2.39946,3.10499 -1.95093,2.73019 -6.99788,-0.60291 -8.93527,3.8291 -2.87011,6.5657 9.0905,4.10163 11.015,9.73021 4.5,13.16112 -1.2375,0.65169 -2.25,2.06905 -2.25,3.1497 0,1.08065 -0.675,1.96482 -1.5,1.96482 -0.825,0 -1.5,-0.86425 -1.5,-1.92054 z m 38.357,-3.07104 c -4.57947,-1.84804 -6.77791,-8.48491 -4.32736,-13.06381 2.11183,-3.94599 10.30093,-6.28597 13.9414,-3.98367 2.2687,1.43477 0.36183,2.48777 -3.94232,2.177 -6.96682,-0.50302 -10.61631,6.27447 -5.91184,10.97894 1.71218,1.71218 2.95483,2.02243 6.5,1.62284 3.13626,-0.35351 4.38312,-0.13272 4.38312,0.77613 0,2.4062 -6.21813,3.27822 -10.643,1.49257 z m 21.1997,-1.23093 c -1.16379,-1.66155 -1.5567,-4.81653 -1.5567,-12.5 v -10.27749 h -2.5 c -1.55556,0 -2.5,-0.56667 -2.5,-1.5 0,-1.08333 1.11111,-1.5 4,-1.5 h 4 l 0.0153,11.25 c 0.008,6.1875 0.41056,11.87411 0.89363,12.63691 0.54214,0.85607 1.88505,1.19446 3.50856,0.88411 2.94677,-0.56331 4.58181,0.98192 2.46061,2.32547 -2.5829,1.63598 -6.70984,0.98184 -8.32141,-1.319 z m 20.4433,0.22251 c -1.55556,-1.55556 -2,-3.33333 -2,-8 0,-5.73333 -0.11111,-6 -2.5,-6 -1.55556,0 -2.5,-0.56667 -2.5,-1.5 0,-1.08333 1.11111,-1.5 4,-1.5 h 4 l 0.0153,6.75 c 0.0183,8.04891 0.82623,9.70461 4.40219,9.02102 2.94677,-0.56331 4.58181,0.98192 2.46061,2.32547 -2.3358,1.47948 -5.78176,0.99986 -7.87811,-1.09649 z m 18.357,1.00842 c -4.57947,-1.84804 -6.77791,-8.48491 -4.32736,-13.06381 2.11183,-3.94599 10.30093,-6.28597 13.9414,-3.98367 2.2687,1.43477 0.36183,2.48777 -3.94232,2.177 -6.96682,-0.50302 -10.61631,6.27447 -5.91184,10.97894 1.71218,1.71218 2.95483,2.02243 6.5,1.62284 3.13626,-0.35351 4.38312,-0.13272 4.38312,0.77613 0,2.4062 -6.21813,3.27822 -10.643,1.49257 z m 15.86478,-12.67646 c 0.20032,-9.84119 0.6282,-13.78431 1.52822,-14.08333 0.9358,-0.31091 1.25628,1.80502 1.275,8.41804 l 0.025,8.83333 4.01111,-4.25 c 2.32594,-2.46446 4.92367,-4.25 6.18321,-4.25 1.8968,0 1.6121,0.57059 -2.24643,4.50214 l -4.41851,4.50213 4.92271,4.99787 c 3.84161,3.90023 4.49929,4.99786 2.99467,4.99786 -1.06044,0 -4.08102,-2.12058 -6.71241,-4.71241 l -4.78435,-4.71241 v 4.71241 c 0,3.56082 -0.37346,4.71241 -1.52822,4.71241 -1.30999,0 -1.48849,-1.95179 -1.25,-13.66804 z m -37.85759,-9.82527 c -0.34636,-0.90262 -0.15025,-2.12063 0.43581,-2.70669 1.52361,-1.52361 4.41041,-0.13109 4.01242,1.93549 -0.4433,2.30188 -3.64766,2.85743 -4.44823,0.7712 z"
         id="path4887"
         inkscape:connector-curvature="0" />
      <path
         style="fill:#000000;fill-opacity:1;stroke:none"
         d="m 196.37089,506.0752 c 7.38153,0.15924 14.76525,0.0821 22.14736,0.0136 -3.6814,3.83663 -9.42739,1.45689 -14.06576,2.07921 -3.69684,-0.007 -7.3939,0.0151 -11.09,0.0923 1.0029,-0.72825 2.00505,-1.45754 3.0084,-2.18514 z"
         id="path4889"
         inkscape:connector-curvature="0" />
    </g>
  </g>
</svg>
